FFmpeg version SVN-r25716, Copyright (c) 2000-2010 the FFmpeg developers  built on Nov 10 2010 12:23:18 with gcc 4.1.2 20080704 (Red Hat 4.1.2-48)  configuration: --enable-libmp3lame --enable-shared --disable-mmx --arch=x86_64  libavutil     50.33. 0 / 50.33. 0  libavcore      0.12. 1 /  0.12. 1  libavcodec    52.94. 4 / 52.94. 4  libavformat   52.84. 0 / 52.84. 0  libavdevice   52. 2. 2 / 52. 2. 2  libavfilter    1.59. 0 /  1.59. 0  libswscale     0.12. 0 /  0.12. 0Input #0, avi, from '/RAID10/data/converted_video_files/20153.avi':  Metadata:    encoder         : CanonMVI01  Duration: 00:02:59.99, start: 0.000000, bitrate: 2639 kb/s    Stream #0.0: Video: mjpeg, yuvj422p, 320x240, 15 tbr, 15 tbn, 15 tbc    Stream #0.1: Audio: pcm_u8, 11024 Hz, 1 channels, u8, 88 kb/s[buffer @ 0xb9f24b0] w:320 h:240 pixfmt:yuvj422p[ffsink @ 0xba0b3d0] auto-inserting filter 'auto-inserted scaler 0' between the filter 'src' and the filter 'out'[scale @ 0xba0b6c0] w:320 h:240 fmt:yuvj422p -> w:320 h:240 fmt:yuv420p flags:0x4Output #0, flv, to '/RAID10/data/converted_video_files/20153.flv':  Metadata:    encoder         : Lavf52.84.0    Stream #0.0: Video: flv, yuv420p, 320x240, q=2-31, 600 kb/s, 1k tbn, 24 tbc    Stream #0.1: Audio: libmp3lame, 22050 Hz, 1 channels, s16, 96 kb/sStream mapping:  Stream #0.0 -> #0.0  Stream #0.1 -> #0.1Press [q] to stop encodingWarning, using s16 intermediate sample format for resamplingframe=   73 fps=  0 q=2.1 size=     455kB time=4.83 bitrate= 771.7kbits/s    frame=  135 fps=128 q=2.8 size=     792kB time=8.96 bitrate= 724.5kbits/s    frame=  217 fps=139 q=2.0 size=    1259kB time=14.42 bitrate= 715.3kbits/s    frame=  300 fps=144 q=2.6 size=    1706kB time=19.93 bitrate= 701.1kbits/s    frame=  375 fps=145 q=2.8 size=    2150kB time=24.96 bitrate= 705.7kbits/s    frame=  444 fps=145 q=2.5 size=    2525kB time=29.58 bitrate= 699.1kbits/s    frame=  507 fps=142 q=2.5 size=    2895kB time=33.75 bitrate= 702.7kbits/s    frame=  588 fps=144 q=2.6 size=    3341kB time=39.17 bitrate= 698.9kbits/s    frame=  675 fps=147 q=3.1 size=    3853kB time=44.96 bitrate= 702.1kbits/s    frame=  762 fps=150 q=2.6 size=    4345kB time=50.75 bitrate= 701.4kbits/s    frame=  840 fps=151 q=2.5 size=    4776kB time=55.93 bitrate= 699.6kbits/s    frame=  914 fps=150 q=2.9 size=    5223kB time=60.92 bitrate= 702.4kbits/s    frame= 1004 fps=152 q=2.6 size=    5720kB time=66.92 bitrate= 700.3kbits/s    frame= 1092 fps=154 q=2.8 size=    6219kB time=72.75 bitrate= 700.3kbits/s    frame= 1174 fps=153 q=2.6 size=    6692kB time=78.25 bitrate= 700.6kbits/s    frame= 1239 fps=153 q=2.6 size=    7077kB time=82.58 bitrate= 702.0kbits/s    frame= 1311 fps=152 q=3.0 size=    7484kB time=87.38 bitrate= 701.7kbits/s    frame= 1394 fps=153 q=2.8 size=    7963kB time=92.92 bitrate= 702.1kbits/s    frame= 1467 fps=153 q=2.5 size=    8376kB time=97.75 bitrate= 701.9kbits/s    frame= 1530 fps=151 q=2.7 size=    8727kB time=101.96 bitrate= 701.2kbits/s    frame= 1592 fps=150 q=2.6 size=    9076kB time=106.08 bitrate= 700.8kbits/s    frame= 1666 fps=150 q=2.4 size=    9496kB time=111.04 bitrate= 700.6kbits/s    frame= 1743 fps=150 q=2.6 size=    9945kB time=116.17 bitrate= 701.3kbits/s    frame= 1832 fps=151 q=2.5 size=   10453kB time=122.08 bitrate= 701.4kbits/s    frame= 1919 fps=151 q=2.4 size=   10948kB time=127.92 bitrate= 701.1kbits/s    frame= 1937 fps=147 q=2.8 size=   11052kB time=129.08 bitrate= 701.4kbits/s    frame= 2007 fps=147 q=2.8 size=   11458kB time=133.75 bitrate= 701.8kbits/s    frame= 2048 fps=144 q=2.5 size=   11678kB time=136.50 bitrate= 700.9kbits/s    frame= 2096 fps=143 q=2.7 size=   11957kB time=139.71 bitrate= 701.1kbits/s    frame= 2184 fps=144 q=2.7 size=   12455kB time=145.58 bitrate= 700.8kbits/s    frame= 2272 fps=145 q=2.8 size=   12969kB time=151.42 bitrate= 701.7kbits/s    frame= 2360 fps=146 q=2.5 size=   13466kB time=157.29 bitrate= 701.4kbits/s    frame= 2449 fps=147 q=2.0 size=   13982kB time=163.25 bitrate= 701.6kbits/s    frame= 2533 fps=147 q=2.0 size=   14461kB time=168.83 bitrate= 701.7kbits/s    frame= 2621 fps=148 q=2.5 size=   14961kB time=174.71 bitrate= 701.5kbits/s    frame= 2693 fps=148 q=2.5 size=   15370kB time=179.50 bitrate= 701.5kbits/s    frame= 2700 fps=148 q=2.4 Lsize=   15401kB time=179.96 bitrate= 701.1kbits/s    video:13141kB audio:2110kB global headers:0kB muxing overhead 0.984849%